<?xml version="1.0" standalone="no"?>
<!DOCTYPE svg PUBLIC "-//W3C//DTD SVG 20010904//EN"
 "http://www.w3.org/TR/2001/REC-SVG-20010904/DTD/svg10.dtd">
<svg version="1.0" xmlns="http://www.w3.org/2000/svg"
 width="102.000000pt" height="102.000000pt" viewBox="0 0 102.000000 102.000000"
 preserveAspectRatio="xMidYMid meet">
<metadata>
Created by potrace 1.11, written by Peter Selinger 2001-2013
</metadata>
<g transform="translate(0.000000,102.000000) scale(0.100000,-0.100000)"
fill="#000000" stroke="none">
<path d="M475 961 c-11 -3 -47 -24 -80 -45 -33 -22 -98 -64 -145 -94 -220
-142 -218 -141 -235 -186 -25 -64 -15 -124 27 -159 223 -190 481 -399 501
-406 20 -8 34 -4 72 20 l47 30 38 -26 c43 -30 63 -26 80 16 9 20 19 29 35 29
33 0 85 20 86 33 3 31 -4 53 -22 67 -18 14 -17 16 19 40 20 14 39 27 42 31 3
3 20 14 38 24 17 11 33 27 33 37 1 10 2 24 3 31 1 6 -5 24 -13 40 -14 24 -14
30 2 56 9 16 17 42 17 58 0 27 -21 45 -232 198 -128 93 -235 172 -238 175 -16
18 -58 36 -75 31z"/>
</g>
</svg>
