<svg xmlns="http://www.w3.org/2000/svg" width="300px" height="63px" viewBox="0 0 300.02 63.21" fill="currentColor"><path d="M0,25.27c1.77-4.19,5.58-5.52,9.5-6.53c4.55-1.17,9.15-1.21,13.71,0.06c5.8,1.62,8.92,5.73,8.92,11.7 c0,6.61-0.02,13.21,0.02,19.82c0,0.84-0.19,1.17-1.07,1.29c-2.14,0.3-4.27,0.5-6.43,0.2c-2.22-0.31-3.53-1.55-3.83-3.76 c-0.3-2.18-0.14-4.37-0.15-6.56c-0.03-3.58,0-7.16-0.01-10.74c-0.01-2.37-1.28-3.71-3.64-3.84c-1.57-0.09-3.1,0.11-4.56,0.74 c-0.72,0.31-0.97,0.72-0.97,1.53c0.04,6.96,0,13.93,0.04,20.89c0.01,0.99-0.16,1.47-1.29,1.59c-1.99,0.21-3.95,0.42-5.95,0.19 c-2.09-0.24-3.49-1.22-4.03-3.29C0.22,48.4,0.19,48.25,0,48.21C0,40.57,0,32.92,0,25.27z"></path><path style="fill: rgb(20, 177, 75);" d="M148.22,22.37c1.3-2.64,2.75-5.18,4.79-7.36c3.27-3.51,7.3-5.58,11.98-6.44c3.82-0.7,7.6-0.62,11.31,0.69 c3.76,1.33,6.8,3.61,9.13,6.84c0.28,0.38,0.57,0.76,0.85,1.14c0.02,0.02,0.07,0.01,0.21,0.03c1.23-4.11,2.45-8.24,3.69-12.36 c0.43-1.44,0.89-2.88,1.3-4.33c0.18-0.64,0.42-0.73,0.99-0.37c2.21,1.35,4.41,2.71,6.67,3.97c0.94,0.52,0.91,0.91,0.29,1.68 c-3.45,4.33-6.84,8.69-10.26,13.05c-0.12,0.15-0.22,0.3-0.42,0.57c2.93,0.14,5.63,0.65,8.12,1.99c-1.05,2.23-0.78,4.43,0.09,6.65 c0.25,0.63,0.61,0.8,1.25,0.79c1.62-0.03,3.25,0.02,4.87,0.03c0.52,2.08,1.05,4.15,1,6.31c-1.92,2.28-3.84,4.57-5.77,6.85 c-1.93,2.28-3.04,4.76-1.98,7.79c-2.83,2.81-6.08,4.96-9.77,6.49c-4.83,2-9.91,2.94-15.07,3.24c-5.09,0.3-10.2,0.18-15.27-0.47 c-4.4-0.56-8.78-1.29-13.12-2.27c-1.07-0.24-2.13-0.81-3.3-0.54c-0.08-0.01-0.16-0.02-0.23-0.04c-1.87-0.59-1.84-0.58-0.81-2.21 c0.54-0.85,1.2-1.66,1.37-2.7c0.13-0.14,0.3-0.26,0.39-0.43c1.68-3.36,3.14-6.8,4.06-10.45c1.39-3.93,1.12-8.09,1.71-12.14 l-0.02,0.01c0.06-0.06,0.13-0.12,0.19-0.18C146.81,26.2,147.56,24.3,148.22,22.37z M188.02,38.34c0-2.43,0.02-4.86,0-7.29 c-0.04-5.48-2.81-9.27-8.03-11.03c-3.74-1.26-7.6-1.39-11.48-1.08c-2.39,0.19-4.78,0.46-6.98,1.48c-2.87,1.34-3.8,3.78-2.61,6.71 c0.85,2.09,1.3,2.3,3.43,1.6c0.04-0.01,0.07-0.03,0.11-0.04c3.75-1.12,7.55-1.72,11.44-0.78c1.11,0.27,2.1,0.75,2.6,1.9 c0.59,1.36,0.36,1.73-1.11,1.89c-3.45,0.38-6.93,0.55-10.34,1.23c-8.02,1.6-9.62,7.3-8.17,13.04c1.01,4.02,4.18,5.95,7.94,7 c4.14,1.16,8.36,1.15,12.59,0.59c2.79-0.37,5.47-1.09,7.85-2.67c1.86-1.23,2.93-2.8,2.8-5.16 C187.92,43.28,188.02,40.81,188.02,38.34z"></path><path d="M148.22,22.37c-0.66,1.92-1.41,3.82-1.76,5.84c-0.06,0.06-0.13,0.12-0.19,0.18c0,0,0.02-0.01,0.01-0.01 c-2.27,1.97-4.54,3.95-6.82,5.91c-0.37,0.32-0.74,0.53-0.16,1.07c1.79,1.68,3.51,3.43,5.26,5.15c-0.92,3.65-2.38,7.09-4.06,10.45 c-0.08,0.17-0.26,0.29-0.39,0.43c-1.74-0.83-2.99-2.22-4.17-3.68c-2.17-2.7-4.34-5.4-6.51-8.11c-0.43,0.2-0.23,0.56-0.23,0.83 c-0.02,3.34-0.03,6.69,0.01,10.03c0.01,0.71-0.21,0.98-0.89,1.08c-2.13,0.31-4.25,0.59-6.43,0.3c-2.38-0.32-3.67-1.46-4.05-3.82 c-0.1-0.62-0.11-1.27-0.11-1.9c-0.01-12.34,0.01-24.68-0.04-37.01c0-1.06,0.36-1.35,1.28-1.49c1.74-0.25,3.47-0.43,5.24-0.32 c3.46,0.21,4.98,1.75,4.99,5.2c0.01,5.37,0,10.75,0,16.12c0,0.4,0,0.79,0,1.34c0.99-0.65,1.65-1.48,2.37-2.22 c2.86-2.89,5.69-5.8,8.52-8.72c0.43-0.45,0.86-0.58,1.48-0.53C144.43,18.72,146.88,19.58,148.22,22.37z"></path><path d="M112.1,35.87c-0.05,9.59-6.39,16.15-16.06,16.61c-3.14,0.15-6.2-0.18-9.15-1.37 c-4.36-1.76-7.35-4.86-8.85-9.27c-1.55-4.54-1.53-9.15,0.16-13.67c1.58-4.25,4.55-7.24,8.79-8.88c4.63-1.79,9.36-1.89,14.06-0.36 c6.81,2.22,10.98,8.16,11.06,15.51C112.1,34.91,112.1,35.39,112.1,35.87z M88.69,35.18c0,1.8,0.18,3.58,0.98,5.22 c0.99,2.04,2.61,3.15,4.93,3.15c2.27,0,3.94-1.03,4.8-3.1c1.44-3.49,1.49-7.04-0.03-10.52c-0.9-2.05-2.56-3.04-4.84-3.03 c-2.29,0.01-3.85,1.08-4.83,3.07C88.87,31.61,88.68,33.38,88.69,35.18z"></path><path d="M245.07,53.6c-5.16-0.07-9.71-1.32-13.29-5.03c-3.19-3.31-4.44-7.36-4.5-11.84 c-0.08-5.88,1.69-10.98,6.65-14.55c3.77-2.71,8.09-3.34,12.63-3.12c7.23,0.35,13.17,4.86,15.11,11.67 c1.22,4.28,1.12,8.59-0.46,12.76c-2.39,6.3-7.31,9.24-13.79,9.98C246.58,53.56,245.74,53.56,245.07,53.6z M250.69,36.26 c0.01-1.8-0.18-3.56-0.98-5.21c-0.98-2.02-2.59-3.08-4.84-3.09s-3.98,1-4.85,3.05c-1.49,3.52-1.52,7.14,0.05,10.64 c0.93,2.07,2.69,3.05,5.01,2.99c2.24-0.05,3.74-1.2,4.66-3.15C250.52,39.83,250.71,38.06,250.69,36.26z"></path><path d="M55.15,52.53c-5.77-0.13-10.92-1.89-14.47-6.93c-4.62-6.57-4.19-18.88,3.54-24.43 c6.4-4.59,18.26-4.57,24.24,1.92c2.98,3.24,4.3,7.11,4.41,11.41c0.14,5.15-1.04,9.88-4.93,13.58C64.41,51.44,60,52.44,55.15,52.53 z M61.15,35.09c0.04-1.61-0.17-3.38-0.94-5.03c-0.92-1.95-2.41-3.09-4.65-3.16c-2.32-0.08-4.09,0.84-5.02,2.94 c-1.58,3.55-1.58,7.18,0.01,10.73c0.93,2.09,2.71,3.04,5.01,2.98c2.28-0.06,3.79-1.23,4.69-3.27 C60.95,38.68,61.16,37.01,61.15,35.09z"></path><path d="M279.38,40.9c0,3.54-0.02,7.08,0.02,10.63c0.01,0.75-0.24,1.04-0.95,1.15c-2.34,0.36-4.68,0.57-7.02,0.11 c-1.99-0.39-3.12-1.62-3.38-3.64c-0.07-0.55-0.09-1.11-0.09-1.66c-0.01-6.49,0.05-12.98-0.03-19.46 c-0.03-2.35,0.91-4.05,2.78-5.33c3.27-2.25,6.98-3.27,10.88-3.58c3.35-0.27,6.7-0.14,9.95,0.89c5.29,1.68,8.34,5.48,8.44,10.99 c0.12,6.92,0.03,13.85,0.06,20.77c0,0.56-0.18,0.75-0.71,0.84c-2.41,0.44-4.83,0.63-7.25,0.18c-1.96-0.37-3.08-1.57-3.36-3.52 c-0.09-0.59-0.11-1.19-0.11-1.78c-0.01-4.97-0.08-9.95,0.02-14.92c0.08-4.1-2.55-4.8-5.26-4.58c-0.12,0.01-0.24,0.04-0.35,0.06 c-3.49,0.52-3.59,0.64-3.59,4.15C279.38,35.09,279.38,38,279.38,40.9z"></path><path d="M203.08,28.95c-1.62-0.02-3.25-0.06-4.87-0.03c-0.64,0.01-1-0.16-1.25-0.79c-0.88-2.22-1.15-4.42-0.09-6.65 c0.94-1.05,2.14-1.43,3.53-1.43c6.63,0.02,13.27,0.02,19.9-0.01c0.66,0,1.12,0.2,1.55,0.69c1.81,2.04,2.18,4.75,0.99,7.22 c-0.79,1.64-2.03,2.95-3.17,4.32c-2.95,3.56-5.92,7.1-8.88,10.65c-0.17,0.2-0.33,0.42-0.63,0.8c1.55,0,2.88,0,4.22,0 c2.6,0,5.2,0.05,7.79-0.03c0.9-0.03,1.26,0.33,1.54,1.09c0.55,1.53,0.78,3.07,0.52,4.68c-0.3,1.87-1.51,3.04-3.41,3.05 c-7.31,0.03-14.62,0.01-21.94,0.02c-0.38,0-0.7-0.08-0.99-0.31c-0.59-0.73-1.14-1.47-1.54-2.33c-1.07-3.03,0.05-5.51,1.98-7.79 s3.85-4.56,5.77-6.85c1.79-2.05,3.57-4.1,5.5-6.31C207.19,28.95,205.13,28.95,203.08,28.95z"></path><path style="fill: rgb(14, 130, 65);" d="M196.33,49.89c0.4,0.85,0.95,1.6,1.54,2.33c-5.68,6.1-12.93,9.03-20.99,10.35 c-10.46,1.71-20.51-0.13-30.38-3.48c-2.29-0.78-4.59-1.53-6.71-2.74c1.17-0.27,2.23,0.3,3.3,0.54c4.34,0.98,8.72,1.71,13.12,2.27 c5.07,0.65,10.19,0.77,15.27,0.47c5.16-0.3,10.24-1.24,15.07-3.24C190.25,54.85,193.5,52.7,196.33,49.89z"></path><path d="M188.02,38.34c0,2.47-0.1,4.94,0.03,7.41c0.13,2.36-0.95,3.93-2.8,5.16c-2.38,1.59-5.06,2.31-7.85,2.67 c-4.23,0.55-8.45,0.57-12.59-0.59c-3.75-1.06-6.92-2.98-7.94-7c-1.45-5.74,0.16-11.44,8.17-13.04c3.41-0.68,6.89-0.85,10.34-1.23 c1.47-0.16,1.7-0.53,1.11-1.89c-0.49-1.15-1.49-1.63-2.6-1.9c-3.89-0.94-7.69-0.34-11.44,0.78c-0.04,0.01-0.07,0.03-0.11,0.04 c-2.13,0.7-2.58,0.49-3.43-1.6c-1.19-2.93-0.26-5.38,2.61-6.71c2.21-1.03,4.6-1.29,6.98-1.48c3.89-0.32,7.74-0.19,11.48,1.08 c5.22,1.76,7.98,5.55,8.03,11.03C188.04,33.48,188.02,35.91,188.02,38.34z M176.84,42.04c0-0.72,0.01-1.43,0-2.15 c-0.01-0.3,0.06-0.71-0.45-0.65c-2.29,0.29-4.64,0.1-6.85,0.87c-1.13,0.39-1.94,1.1-1.89,2.44c0.04,1.17,0.78,2.14,2.01,2.54 c1.55,0.5,3.16,0.4,4.73,0.18c2.46-0.35,2.46-0.39,2.46-2.87C176.84,42.27,176.84,42.15,176.84,42.04z"></path><path class="st3" d="M146.27,28.39c0.06-0.06,0.13-0.12,0.19-0.18C146.39,28.27,146.33,28.33,146.27,28.39z"></path><path style="fill: rgb(20, 177, 75);" d="M176.84,42.04c0,0.12,0,0.24,0,0.36c0,2.48,0.01,2.52-2.46,2.87c-1.58,0.23-3.18,0.33-4.73-0.18 c-1.23-0.4-1.97-1.37-2.01-2.54c-0.05-1.34,0.76-2.04,1.89-2.44c2.22-0.77,4.57-0.58,6.85-0.87c0.51-0.06,0.44,0.35,0.45,0.65 C176.85,40.6,176.84,41.32,176.84,42.04z"></path></svg>